{
    "asset" : {
        "generator" : "Khronos glTF Blender I/O v1.1.46",
        "version" : "2.0"
    },
    "scene" : 0,
    "scenes" : [
        {
            "name" : "Scene",
            "nodes" : [
                0,
                1,
                2,
                3,
                4,
                5,
                6,
                7,
                8,
                9
            ]
        }
    ],
    "nodes" : [
        {
            "mesh" : 0,
            "name" : "Cube",
            "translation" : [
                0,
                7.3356404304504395,
                0
            ]
        },
        {
            "mesh" : 1,
            "name" : "Sphere",
            "rotation" : [
                0,
                0.19509033858776093,
                0,
                0.9807852506637573
            ],
            "translation" : [
                0,
                9.653152465820312,
                0.04740741848945618
            ]
        },
        {
            "name" : "leo_mask",
            "rotation" : [
                0.7071068286895752,
                0,
                0,
                0.7071067094802856
            ],
            "scale" : [
                9.73590087890625,
                2.749941825866699,
                9.73590087890625
            ],
            "translation" : [
                5.56026029586792,
                2.289896249771118,
                0
            ]
        },
        {
            "mesh" : 2,
            "name" : "Cube_Cube.003",
            "rotation" : [
                0.5,
                0.4999999701976776,
                -0.5000000596046448,
                0.4999999403953552
            ],
            "translation" : [
                0.3580700159072876,
                7.024214744567871,
                0.5535669922828674
            ]
        },
        {
            "mesh" : 3,
            "name" : "Cube.004_Cube.017",
            "rotation" : [
                0.5,
                0.4999999701976776,
                -0.5000000596046448,
                0.4999999403953552
            ],
            "translation" : [
                0.3580700159072876,
                7.024214744567871,
                0.5535669922828674
            ]
        },
        {
            "mesh" : 4,
            "name" : "Cube_Cube.003.000",
            "rotation" : [
                0.5,
                0.4999999701976776,
                -0.5000000596046448,
                0.4999999403953552
            ],
            "translation" : [
                2.0152170658111572,
                7.013979434967041,
                0.44015100598335266
            ]
        },
        {
            "mesh" : 5,
            "name" : "Cube.004_Cube.001",
            "rotation" : [
                0.5,
                0.4999999701976776,
                -0.5000000596046448,
                0.4999999403953552
            ],
            "translation" : [
                2.0152170658111572,
                7.013979434967041,
                0.44015100598335266
            ]
        },
        {
            "mesh" : 6,
            "name" : "Cube.019",
            "rotation" : [
                0.5,
                0.4999999701976776,
                -0.5000000596046448,
                0.4999999403953552
            ],
            "translation" : [
                -0.7695481777191162,
                9.748303413391113,
                0.42109236121177673
            ]
        },
        {
            "mesh" : 7,
            "name" : "Cube.001",
            "translation" : [
                6.1414899826049805,
                7.3356404304504395,
                0
            ]
        },
        {
            "mesh" : 8,
            "name" : "Sphere.001",
            "rotation" : [
                0,
                0.19509033858776093,
                0,
                0.9807852506637573
            ],
            "translation" : [
                6.1414899826049805,
                9.653152465820312,
                0.04740741848945618
            ]
        }
    ],
    "materials" : [
        {
            "doubleSided" : true,
            "emissiveFactor" : [
                0,
                0,
                0
            ],
            "name" : "Material",
            "pbrMetallicRoughness" : {
                "baseColorFactor" : [
                    0.800000011920929,
                    0.800000011920929,
                    0.800000011920929,
                    1
                ],
                "metallicFactor" : 0,
                "roughnessFactor" : 0.4000000059604645
            }
        },
        {
            "doubleSided" : true,
            "emissiveFactor" : [
                0,
                0,
                0
            ],
            "name" : "Material.001",
            "pbrMetallicRoughness" : {
                "metallicFactor" : 0,
                "roughnessFactor" : 0.5
            }
        },
        {
            "doubleSided" : true,
            "emissiveFactor" : [
                0,
                0,
                0
            ],
            "name" : "Material.003",
            "pbrMetallicRoughness" : {
                "metallicFactor" : 0,
                "roughnessFactor" : 0.5
            }
        },
        {
            "doubleSided" : true,
            "emissiveFactor" : [
                0,
                0,
                0
            ],
            "name" : "Material.004",
            "pbrMetallicRoughness" : {
                "metallicFactor" : 0,
                "roughnessFactor" : 0.5
            }
        }
    ],
    "meshes" : [
        {
            "name" : "Cube",
            "primitives" : [
                {
                    "attributes" : {
                        "POSITION" : 0,
                        "NORMAL" : 1,
                        "TEXCOORD_0" : 2
                    },
                    "indices" : 3,
                    "material" : 0
                }
            ]
        },
        {
            "name" : "Sphere",
            "primitives" : [
                {
                    "attributes" : {
                        "POSITION" : 4,
                        "NORMAL" : 5,
                        "TEXCOORD_0" : 6
                    },
                    "indices" : 7
                }
            ]
        },
        {
            "name" : "Cube_Cube.003",
            "primitives" : [
                {
                    "attributes" : {
                        "POSITION" : 8,
                        "NORMAL" : 9,
                        "TEXCOORD_0" : 10
                    },
                    "indices" : 11,
                    "material" : 1
                }
            ]
        },
        {
            "name" : "Cube.004_Cube.017",
            "primitives" : [
                {
                    "attributes" : {
                        "POSITION" : 12,
                        "NORMAL" : 13,
                        "TEXCOORD_0" : 14
                    },
                    "indices" : 15,
                    "material" : 1
                }
            ]
        },
        {
            "name" : "Cube_Cube.003.000",
            "primitives" : [
                {
                    "attributes" : {
                        "POSITION" : 16,
                        "NORMAL" : 17,
                        "TEXCOORD_0" : 18
                    },
                    "indices" : 19,
                    "material" : 2
                }
            ]
        },
        {
            "name" : "Cube.004_Cube.001",
            "primitives" : [
                {
                    "attributes" : {
                        "POSITION" : 20,
                        "NORMAL" : 21,
                        "TEXCOORD_0" : 22
                    },
                    "indices" : 23,
                    "material" : 3
                }
            ]
        },
        {
            "name" : "Cube.019",
            "primitives" : [
                {
                    "attributes" : {
                        "POSITION" : 24,
                        "NORMAL" : 25,
                        "TEXCOORD_0" : 26
                    },
                    "indices" : 27,
                    "material" : 2
                }
            ]
        },
        {
            "name" : "Cube.001",
            "primitives" : [
                {
                    "attributes" : {
                        "POSITION" : 28,
                        "NORMAL" : 29,
                        "TEXCOORD_0" : 30
                    },
                    "indices" : 3,
                    "material" : 0
                }
            ]
        },
        {
            "name" : "Sphere.001",
            "primitives" : [
                {
                    "attributes" : {
                        "POSITION" : 31,
                        "NORMAL" : 32,
                        "TEXCOORD_0" : 33
                    },
                    "indices" : 7
                }
            ]
        }
    ],
    "accessors" : [
        {
            "bufferView" : 0,
            "componentType" : 5126,
            "count" : 582,
            "max" : [
                2.26638126373291,
                1.5399421453475952,
                1.5944314002990723
            ],
            "min" : [
                -2.26638126373291,
                -7.313817024230957,
                -0.2870909571647644
            ],
            "type" : "VEC3"
        },
        {
            "bufferView" : 1,
            "componentType" : 5126,
            "count" : 582,
            "type" : "VEC3"
        },
        {
            "bufferView" : 2,
            "componentType" : 5126,
            "count" : 582,
            "type" : "VEC2"
        },
        {
            "bufferView" : 3,
            "componentType" : 5123,
            "count" : 924,
            "type" : "SCALAR"
        },
        {
            "bufferView" : 4,
            "componentType" : 5126,
            "count" : 176,
            "max" : [
                0.9173072576522827,
                1.0305455923080444,
                1.0479187965393066
            ],
            "min" : [
                -0.9173071384429932,
                -0.976844847202301,
                -0.9886621236801147
            ],
            "type" : "VEC3"
        },
        {
            "bufferView" : 5,
            "componentType" : 5126,
            "count" : 176,
            "type" : "VEC3"
        },
        {
            "bufferView" : 6,
            "componentType" : 5126,
            "count" : 176,
            "type" : "VEC2"
        },
        {
            "bufferView" : 7,
            "componentType" : 5123,
            "count" : 276,
            "type" : "SCALAR"
        },
        {
            "bufferView" : 8,
            "componentType" : 5126,
            "count" : 282,
            "max" : [
                1.7471890449523926,
                1.5160690546035767,
                -1.7738510370254517
            ],
            "min" : [
                -1.0148589611053467,
                -2.2096738815307617,
                -4.511745929718018
            ],
            "type" : "VEC3"
        },
        {
            "bufferView" : 9,
            "componentType" : 5126,
            "count" : 282,
            "type" : "VEC3"
        },
        {
            "bufferView" : 10,
            "componentType" : 5126,
            "count" : 282,
            "type" : "VEC2"
        },
        {
            "bufferView" : 11,
            "componentType" : 5123,
            "count" : 438,
            "type" : "SCALAR"
        },
        {
            "bufferView" : 12,
            "componentType" : 5126,
            "count" : 26,
            "max" : [
                0.03890499845147133,
                0.8807060122489929,
                -3.0893828868865967
            ],
            "min" : [
                -0.20342400670051575,
                -1.5791929960250854,
                -3.9781899452209473
            ],
            "type" : "VEC3"
        },
        {
            "bufferView" : 13,
            "componentType" : 5126,
            "count" : 26,
            "type" : "VEC3"
        },
        {
            "bufferView" : 14,
            "componentType" : 5126,
            "count" : 26,
            "type" : "VEC2"
        },
        {
            "bufferView" : 15,
            "componentType" : 5123,
            "count" : 30,
            "type" : "SCALAR"
        },
        {
            "bufferView" : 16,
            "componentType" : 5126,
            "count" : 180,
            "max" : [
                1.7471890449523926,
                5.419565200805664,
                -1.9846199750900269
            ],
            "min" : [
                -1.0148589611053467,
                2.7941460609436035,
                -3.962423086166382
            ],
            "type" : "VEC3"
        },
        {
            "bufferView" : 17,
            "componentType" : 5126,
            "count" : 180,
            "type" : "VEC3"
        },
        {
            "bufferView" : 18,
            "componentType" : 5126,
            "count" : 180,
            "type" : "VEC2"
        },
        {
            "bufferView" : 19,
            "componentType" : 5123,
            "count" : 288,
            "type" : "SCALAR"
        },
        {
            "bufferView" : 20,
            "componentType" : 5126,
            "count" : 39,
            "max" : [
                -0.5221080183982849,
                5.307345867156982,
                -2.515872001647949
            ],
            "min" : [
                -1.0659719705581665,
                2.891693115234375,
                -3.1990089416503906
            ],
            "type" : "VEC3"
        },
        {
            "bufferView" : 21,
            "componentType" : 5126,
            "count" : 39,
            "type" : "VEC3"
        },
        {
            "bufferView" : 22,
            "componentType" : 5126,
            "count" : 39,
            "type" : "VEC2"
        },
        {
            "bufferView" : 23,
            "componentType" : 5123,
            "count" : 75,
            "type" : "SCALAR"
        },
        {
            "bufferView" : 24,
            "componentType" : 5126,
            "count" : 42,
            "max" : [
                0.950003981590271,
                8.31331729888916,
                -0.8410660028457642
            ],
            "min" : [
                0.4061560034751892,
                5.5028791427612305,
                -3.695976972579956
            ],
            "type" : "VEC3"
        },
        {
            "bufferView" : 25,
            "componentType" : 5126,
            "count" : 42,
            "type" : "VEC3"
        },
        {
            "bufferView" : 26,
            "componentType" : 5126,
            "count" : 42,
            "type" : "VEC2"
        },
        {
            "bufferView" : 27,
            "componentType" : 5123,
            "count" : 54,
            "type" : "SCALAR"
        },
        {
            "bufferView" : 28,
            "componentType" : 5126,
            "count" : 582,
            "max" : [
                2.26638126373291,
                1.5399421453475952,
                1.5944314002990723
            ],
            "min" : [
                -2.26638126373291,
                -7.313817024230957,
                -0.2870909571647644
            ],
            "type" : "VEC3"
        },
        {
            "bufferView" : 29,
            "componentType" : 5126,
            "count" : 582,
            "type" : "VEC3"
        },
        {
            "bufferView" : 30,
            "componentType" : 5126,
            "count" : 582,
            "type" : "VEC2"
        },
        {
            "bufferView" : 31,
            "componentType" : 5126,
            "count" : 176,
            "max" : [
                0.9173072576522827,
                1.0305455923080444,
                1.0479187965393066
            ],
            "min" : [
                -0.9173071384429932,
                -0.976844847202301,
                -0.9886621236801147
            ],
            "type" : "VEC3"
        },
        {
            "bufferView" : 32,
            "componentType" : 5126,
            "count" : 176,
            "type" : "VEC3"
        },
        {
            "bufferView" : 33,
            "componentType" : 5126,
            "count" : 176,
            "type" : "VEC2"
        }
    ],
    "bufferViews" : [
        {
            "buffer" : 0,
            "byteLength" : 6984,
            "byteOffset" : 0
        },
        {
            "buffer" : 0,
            "byteLength" : 6984,
            "byteOffset" : 6984
        },
        {
            "buffer" : 0,
            "byteLength" : 4656,
            "byteOffset" : 13968
        },
        {
            "buffer" : 0,
            "byteLength" : 1848,
            "byteOffset" : 18624
        },
        {
            "buffer" : 0,
            "byteLength" : 2112,
            "byteOffset" : 20472
        },
        {
            "buffer" : 0,
            "byteLength" : 2112,
            "byteOffset" : 22584
        },
        {
            "buffer" : 0,
            "byteLength" : 1408,
            "byteOffset" : 24696
        },
        {
            "buffer" : 0,
            "byteLength" : 552,
            "byteOffset" : 26104
        },
        {
            "buffer" : 0,
            "byteLength" : 3384,
            "byteOffset" : 26656
        },
        {
            "buffer" : 0,
            "byteLength" : 3384,
            "byteOffset" : 30040
        },
        {
            "buffer" : 0,
            "byteLength" : 2256,
            "byteOffset" : 33424
        },
        {
            "buffer" : 0,
            "byteLength" : 876,
            "byteOffset" : 35680
        },
        {
            "buffer" : 0,
            "byteLength" : 312,
            "byteOffset" : 36556
        },
        {
            "buffer" : 0,
            "byteLength" : 312,
            "byteOffset" : 36868
        },
        {
            "buffer" : 0,
            "byteLength" : 208,
            "byteOffset" : 37180
        },
        {
            "buffer" : 0,
            "byteLength" : 60,
            "byteOffset" : 37388
        },
        {
            "buffer" : 0,
            "byteLength" : 2160,
            "byteOffset" : 37448
        },
        {
            "buffer" : 0,
            "byteLength" : 2160,
            "byteOffset" : 39608
        },
        {
            "buffer" : 0,
            "byteLength" : 1440,
            "byteOffset" : 41768
        },
        {
            "buffer" : 0,
            "byteLength" : 576,
            "byteOffset" : 43208
        },
        {
            "buffer" : 0,
            "byteLength" : 468,
            "byteOffset" : 43784
        },
        {
            "buffer" : 0,
            "byteLength" : 468,
            "byteOffset" : 44252
        },
        {
            "buffer" : 0,
            "byteLength" : 312,
            "byteOffset" : 44720
        },
        {
            "buffer" : 0,
            "byteLength" : 150,
            "byteOffset" : 45032
        },
        {
            "buffer" : 0,
            "byteLength" : 504,
            "byteOffset" : 45184
        },
        {
            "buffer" : 0,
            "byteLength" : 504,
            "byteOffset" : 45688
        },
        {
            "buffer" : 0,
            "byteLength" : 336,
            "byteOffset" : 46192
        },
        {
            "buffer" : 0,
            "byteLength" : 108,
            "byteOffset" : 46528
        },
        {
            "buffer" : 0,
            "byteLength" : 6984,
            "byteOffset" : 46636
        },
        {
            "buffer" : 0,
            "byteLength" : 6984,
            "byteOffset" : 53620
        },
        {
            "buffer" : 0,
            "byteLength" : 4656,
            "byteOffset" : 60604
        },
        {
            "buffer" : 0,
            "byteLength" : 2112,
            "byteOffset" : 65260
        },
        {
            "buffer" : 0,
            "byteLength" : 2112,
            "byteOffset" : 67372
        },
        {
            "buffer" : 0,
            "byteLength" : 1408,
            "byteOffset" : 69484
        }
    ],
    "buffers" : [
        {
            "byteLength" : 70892,
            "uri" : "data:application/octet-stream;base64,"
        }
    ]
}
