{
    "asset" : {
        "generator" : "Khronos glTF Blender I/O v1.1.46",
        "version" : "2.0"
    },
    "scene" : 0,
    "scenes" : [
        {
            "name" : "Scene",
            "nodes" : [
                4,
                5,
                6,
                7,
                8
            ]
        }
    ],
    "nodes" : [
        {
            "mesh" : 0,
            "name" : "Sphere",
            "rotation" : [
                -0.855851411819458,
                0,
                0,
                0.5172217488288879
            ],
            "scale" : [
                -0.13188569247722626,
                -0.1332107037305832,
                -0.16751202940940857
            ],
            "translation" : [
                1.0371837615966797,
                2.4128341674804688,
                -0.6530764698982239
            ]
        },
        {
            "mesh" : 1,
            "name" : "Surface",
            "scale" : [
                1,
                1,
                0.5
            ],
            "translation" : [
                0,
                2.072693347930908,
                -0.4742094576358795
            ]
        },
        {
            "mesh" : 2,
            "name" : "SurfPatch.002",
            "rotation" : [
                -0.5402852892875671,
                -0.00855387281626463,
                -0.0989387184381485,
                0.8356014490127563
            ],
            "scale" : [
                0.5885314345359802,
                0.5672255158424377,
                0.9502499103546143
            ],
            "translation" : [
                -0.09684576839208603,
                -1.5659116506576538,
                -1.3232519626617432
            ]
        },
        {
            "mesh" : 3,
            "name" : "SurfPatch.003",
            "rotation" : [
                -0.5361095666885376,
                -0.04890387877821922,
                -0.04129054769873619,
                0.8417185544967651
            ],
            "scale" : [
                0.5880489945411682,
                0.568885326385498,
                0.9500271081924438
            ],
            "translation" : [
                0.23291824758052826,
                -1.5590754747390747,
                -1.2867906093597412
            ]
        },
        {
            "children" : [
                0,
                1,
                2,
                3
            ],
            "mesh" : 4,
            "name" : "Cube",
            "scale" : [
                1,
                1,
                2
            ],
            "translation" : [
                0,
                2.2205328941345215,
                0
            ]
        },
        {
            "name" : "Light",
            "rotation" : [
                -0.37887242436408997,
                0.6747848987579346,
                0.07235778123140335,
                0.6291942596435547
            ],
            "translation" : [
                -7.962026596069336,
                13.345720291137695,
                -8.528388023376465
            ]
        },
        {
            "name" : "Camera",
            "rotation" : [
                -0.25199413299560547,
                0.7249974608421326,
                -0.5706948041915894,
                -0.2918647527694702
            ],
            "translation" : [
                -13.796213150024414,
                8.043027877807617,
                -16.349395751953125
            ]
        },
        {
            "name" : "Camera.001",
            "rotation" : [
                0.01533336192369461,
                -0.7415435910224915,
                0.6701314449310303,
                -0.02831682562828064
            ],
            "translation" : [
                0,
                3.813441514968872,
                -7.551907539367676
            ]
        },
        {
            "name" : "Point",
            "rotation" : [
                0.14240023493766785,
                0,
                -0.8050365447998047,
                0.5758805274963379
            ],
            "translation" : [
                6.776081085205078,
                1.7424943447113037,
                0
            ]
        }
    ],
    "animations" : [
        {
            "channels" : [
                {
                    "sampler" : 0,
                    "target" : {
                        "node" : 4,
                        "path" : "translation"
                    }
                },
                {
                    "sampler" : 1,
                    "target" : {
                        "node" : 4,
                        "path" : "rotation"
                    }
                }
            ],
            "name" : "CubeAction.002",
            "samplers" : [
                {
                    "input" : 24,
                    "interpolation" : "LINEAR",
                    "output" : 25
                },
                {
                    "input" : 26,
                    "interpolation" : "LINEAR",
                    "output" : 27
                }
            ]
        },
        {
            "channels" : [
                {
                    "sampler" : 0,
                    "target" : {
                        "node" : 0,
                        "path" : "translation"
                    }
                }
            ],
            "name" : "SphereAction",
            "samplers" : [
                {
                    "input" : 28,
                    "interpolation" : "STEP",
                    "output" : 29
                }
            ]
        },
        {
            "channels" : [
                {
                    "sampler" : 0,
                    "target" : {
                        "node" : 2,
                        "path" : "translation"
                    }
                }
            ],
            "name" : "SurfPatch.002Action.001",
            "samplers" : [
                {
                    "input" : 30,
                    "interpolation" : "LINEAR",
                    "output" : 31
                }
            ]
        },
        {
            "channels" : [
                {
                    "sampler" : 0,
                    "target" : {
                        "node" : 3,
                        "path" : "translation"
                    }
                }
            ],
            "name" : "SurfPatch.003Action.001",
            "samplers" : [
                {
                    "input" : 30,
                    "interpolation" : "LINEAR",
                    "output" : 32
                }
            ]
        },
        {
            "channels" : [
                {
                    "sampler" : 0,
                    "target" : {
                        "node" : 1,
                        "path" : "translation"
                    }
                }
            ],
            "name" : "SurfaceAction",
            "samplers" : [
                {
                    "input" : 28,
                    "interpolation" : "STEP",
                    "output" : 33
                }
            ]
        }
    ],
    "materials" : [
        {
            "doubleSided" : true,
            "emissiveFactor" : [
                0,
                0,
                0
            ],
            "name" : "Material.002",
            "pbrMetallicRoughness" : {
                "baseColorFactor" : [
                    0,
                    0,
                    0,
                    1
                ],
                "metallicFactor" : 0,
                "roughnessFactor" : 0.5
            }
        },
        {
            "doubleSided" : true,
            "emissiveFactor" : [
                0,
                0,
                0
            ],
            "name" : "Material.003",
            "pbrMetallicRoughness" : {
                "baseColorFactor" : [
                    0.8000000715255737,
                    0.258897602558136,
                    0.004392765462398529,
                    1
                ],
                "metallicFactor" : 0,
                "roughnessFactor" : 0.5
            }
        },
        {
            "doubleSided" : true,
            "emissiveFactor" : [
                0,
                0,
                0
            ],
            "name" : "Material.001",
            "pbrMetallicRoughness" : {
                "baseColorFactor" : [
                    1,
                    1,
                    1,
                    1
                ],
                "metallicFactor" : 0,
                "roughnessFactor" : 1
            }
        }
    ],
    "meshes" : [
        {
            "name" : "Sphere",
            "primitives" : [
                {
                    "attributes" : {
                        "POSITION" : 0,
                        "NORMAL" : 1,
                        "TEXCOORD_0" : 2
                    },
                    "indices" : 3,
                    "material" : 0
                },
                {
                    "attributes" : {
                        "POSITION" : 4,
                        "NORMAL" : 5,
                        "TEXCOORD_0" : 6
                    },
                    "indices" : 7,
                    "material" : 0
                }
            ]
        },
        {
            "name" : "Surface",
            "primitives" : [
                {
                    "attributes" : {
                        "POSITION" : 8,
                        "NORMAL" : 9,
                        "TEXCOORD_0" : 10
                    },
                    "indices" : 11,
                    "material" : 1
                }
            ]
        },
        {
            "name" : "SurfPatch.003",
            "primitives" : [
                {
                    "attributes" : {
                        "POSITION" : 12,
                        "NORMAL" : 13,
                        "TEXCOORD_0" : 14
                    },
                    "indices" : 15,
                    "material" : 1
                }
            ]
        },
        {
            "name" : "SurfPatch.004",
            "primitives" : [
                {
                    "attributes" : {
                        "POSITION" : 16,
                        "NORMAL" : 17,
                        "TEXCOORD_0" : 18
                    },
                    "indices" : 19,
                    "material" : 1
                }
            ]
        },
        {
            "name" : "Cube",
            "primitives" : [
                {
                    "attributes" : {
                        "POSITION" : 20,
                        "NORMAL" : 21,
                        "TEXCOORD_0" : 22
                    },
                    "indices" : 23,
                    "material" : 2
                }
            ]
        }
    ],
    "accessors" : [
        {
            "bufferView" : 0,
            "componentType" : 5126,
            "count" : 79,
            "max" : [
                0.9999997615814209,
                1,
                0.9999995231628418
            ],
            "min" : [
                -0.9999996423721313,
                -1,
                -1
            ],
            "type" : "VEC3"
        },
        {
            "bufferView" : 1,
            "componentType" : 5126,
            "count" : 79,
            "type" : "VEC3"
        },
        {
            "bufferView" : 2,
            "componentType" : 5126,
            "count" : 79,
            "type" : "VEC2"
        },
        {
            "bufferView" : 3,
            "componentType" : 5123,
            "count" : 336,
            "type" : "SCALAR"
        },
        {
            "bufferView" : 4,
            "componentType" : 5126,
            "count" : 79,
            "max" : [
                16.774600982666016,
                1.0000003576278687,
                0.9999991655349731
            ],
            "min" : [
                14.774600982666016,
                -0.9999994039535522,
                -1.0000001192092896
            ],
            "type" : "VEC3"
        },
        {
            "bufferView" : 5,
            "componentType" : 5126,
            "count" : 79,
            "type" : "VEC3"
        },
        {
            "bufferView" : 6,
            "componentType" : 5126,
            "count" : 79,
            "type" : "VEC2"
        },
        {
            "bufferView" : 7,
            "componentType" : 5123,
            "count" : 336,
            "type" : "SCALAR"
        },
        {
            "bufferView" : 8,
            "componentType" : 5126,
            "count" : 968,
            "max" : [
                1.3809128999710083,
                -0.37514743208885193,
                1.7837568521499634
            ],
            "min" : [
                -1.35308837890625,
                -1.1399997472763062,
                -1.4137017726898193
            ],
            "type" : "VEC3"
        },
        {
            "bufferView" : 9,
            "componentType" : 5126,
            "count" : 968,
            "type" : "VEC3"
        },
        {
            "bufferView" : 10,
            "componentType" : 5126,
            "count" : 968,
            "type" : "VEC2"
        },
        {
            "bufferView" : 11,
            "componentType" : 5123,
            "count" : 5040,
            "type" : "SCALAR"
        },
        {
            "bufferView" : 12,
            "componentType" : 5126,
            "count" : 1728,
            "max" : [
                0.5509217381477356,
                0.8580714464187622,
                2.826075792312622
            ],
            "min" : [
                -1.1991524696350098,
                0.16638489067554474,
                0.46704959869384766
            ],
            "type" : "VEC3"
        },
        {
            "bufferView" : 13,
            "componentType" : 5126,
            "count" : 1728,
            "type" : "VEC3"
        },
        {
            "bufferView" : 14,
            "componentType" : 5126,
            "count" : 1728,
            "type" : "VEC2"
        },
        {
            "bufferView" : 15,
            "componentType" : 5123,
            "count" : 9630,
            "type" : "SCALAR"
        },
        {
            "bufferView" : 16,
            "componentType" : 5126,
            "count" : 1536,
            "max" : [
                0.6824948191642761,
                0.8970345258712769,
                2.7919204235076904
            ],
            "min" : [
                -0.5423364639282227,
                0.001759829930961132,
                0.36296945810317993
            ],
            "type" : "VEC3"
        },
        {
            "bufferView" : 17,
            "componentType" : 5126,
            "count" : 1536,
            "type" : "VEC3"
        },
        {
            "bufferView" : 18,
            "componentType" : 5126,
            "count" : 1536,
            "type" : "VEC2"
        },
        {
            "bufferView" : 19,
            "componentType" : 5123,
            "count" : 8550,
            "type" : "SCALAR"
        },
        {
            "bufferView" : 20,
            "componentType" : 5126,
            "count" : 333,
            "max" : [
                2.0569608211517334,
                3.612098455429077,
                1.5580800771713257
            ],
            "min" : [
                -2.0569608211517334,
                -2.652308464050293,
                -1.5451468229293823
            ],
            "type" : "VEC3"
        },
        {
            "bufferView" : 21,
            "componentType" : 5126,
            "count" : 333,
            "type" : "VEC3"
        },
        {
            "bufferView" : 22,
            "componentType" : 5126,
            "count" : 333,
            "type" : "VEC2"
        },
        {
            "bufferView" : 23,
            "componentType" : 5123,
            "count" : 1692,
            "type" : "SCALAR"
        },
        {
            "bufferView" : 24,
            "componentType" : 5126,
            "count" : 100,
            "max" : [
                4.166666666666667
            ],
            "min" : [
                0.041666666666666664
            ],
            "type" : "SCALAR"
        },
        {
            "bufferView" : 25,
            "componentType" : 5126,
            "count" : 100,
            "type" : "VEC3"
        },
        {
            "bufferView" : 26,
            "componentType" : 5126,
            "count" : 200,
            "max" : [
                8.333333333333334
            ],
            "min" : [
                0.041666666666666664
            ],
            "type" : "SCALAR"
        },
        {
            "bufferView" : 27,
            "componentType" : 5126,
            "count" : 200,
            "type" : "VEC4"
        },
        {
            "bufferView" : 28,
            "componentType" : 5126,
            "count" : 1,
            "max" : [
                0.041666666666666664
            ],
            "min" : [
                0.041666666666666664
            ],
            "type" : "SCALAR"
        },
        {
            "bufferView" : 29,
            "componentType" : 5126,
            "count" : 1,
            "type" : "VEC3"
        },
        {
            "bufferView" : 30,
            "componentType" : 5126,
            "count" : 201,
            "max" : [
                8.333333333333334
            ],
            "min" : [
                0
            ],
            "type" : "SCALAR"
        },
        {
            "bufferView" : 31,
            "componentType" : 5126,
            "count" : 201,
            "type" : "VEC3"
        },
        {
            "bufferView" : 32,
            "componentType" : 5126,
            "count" : 201,
            "type" : "VEC3"
        },
        {
            "bufferView" : 33,
            "componentType" : 5126,
            "count" : 1,
            "type" : "VEC3"
        }
    ],
    "bufferViews" : [
        {
            "buffer" : 0,
            "byteLength" : 948,
            "byteOffset" : 0
        },
        {
            "buffer" : 0,
            "byteLength" : 948,
            "byteOffset" : 948
        },
        {
            "buffer" : 0,
            "byteLength" : 632,
            "byteOffset" : 1896
        },
        {
            "buffer" : 0,
            "byteLength" : 672,
            "byteOffset" : 2528
        },
        {
            "buffer" : 0,
            "byteLength" : 948,
            "byteOffset" : 3200
        },
        {
            "buffer" : 0,
            "byteLength" : 948,
            "byteOffset" : 4148
        },
        {
            "buffer" : 0,
            "byteLength" : 632,
            "byteOffset" : 5096
        },
        {
            "buffer" : 0,
            "byteLength" : 672,
            "byteOffset" : 5728
        },
        {
            "buffer" : 0,
            "byteLength" : 11616,
            "byteOffset" : 6400
        },
        {
            "buffer" : 0,
            "byteLength" : 11616,
            "byteOffset" : 18016
        },
        {
            "buffer" : 0,
            "byteLength" : 7744,
            "byteOffset" : 29632
        },
        {
            "buffer" : 0,
            "byteLength" : 10080,
            "byteOffset" : 37376
        },
        {
            "buffer" : 0,
            "byteLength" : 20736,
            "byteOffset" : 47456
        },
        {
            "buffer" : 0,
            "byteLength" : 20736,
            "byteOffset" : 68192
        },
        {
            "buffer" : 0,
            "byteLength" : 13824,
            "byteOffset" : 88928
        },
        {
            "buffer" : 0,
            "byteLength" : 19260,
            "byteOffset" : 102752
        },
        {
            "buffer" : 0,
            "byteLength" : 18432,
            "byteOffset" : 122012
        },
        {
            "buffer" : 0,
            "byteLength" : 18432,
            "byteOffset" : 140444
        },
        {
            "buffer" : 0,
            "byteLength" : 12288,
            "byteOffset" : 158876
        },
        {
            "buffer" : 0,
            "byteLength" : 17100,
            "byteOffset" : 171164
        },
        {
            "buffer" : 0,
            "byteLength" : 3996,
            "byteOffset" : 188264
        },
        {
            "buffer" : 0,
            "byteLength" : 3996,
            "byteOffset" : 192260
        },
        {
            "buffer" : 0,
            "byteLength" : 2664,
            "byteOffset" : 196256
        },
        {
            "buffer" : 0,
            "byteLength" : 3384,
            "byteOffset" : 198920
        },
        {
            "buffer" : 0,
            "byteLength" : 400,
            "byteOffset" : 202304
        },
        {
            "buffer" : 0,
            "byteLength" : 1200,
            "byteOffset" : 202704
        },
        {
            "buffer" : 0,
            "byteLength" : 800,
            "byteOffset" : 203904
        },
        {
            "buffer" : 0,
            "byteLength" : 3200,
            "byteOffset" : 204704
        },
        {
            "buffer" : 0,
            "byteLength" : 4,
            "byteOffset" : 207904
        },
        {
            "buffer" : 0,
            "byteLength" : 12,
            "byteOffset" : 207908
        },
        {
            "buffer" : 0,
            "byteLength" : 804,
            "byteOffset" : 207920
        },
        {
            "buffer" : 0,
            "byteLength" : 2412,
            "byteOffset" : 208724
        },
        {
            "buffer" : 0,
            "byteLength" : 2412,
            "byteOffset" : 211136
        },
        {
            "buffer" : 0,
            "byteLength" : 12,
            "byteOffset" : 213548
        }
    ],
    "buffers" : [
        {
            "byteLength" : 213560,
            "uri" : "mommello.bin"
        }
    ]
}
