{
    "asset" : {
        "generator" : "Khronos glTF Blender I/O v1.1.46",
        "version" : "2.0"
    },
    "scene" : 0,
    "scenes" : [
        {
            "name" : "Scene",
            "nodes" : [
                2,
                3,
                4,
                5,
                6
            ]
        }
    ],
    "nodes" : [
        {
            "mesh" : 0,
            "name" : "Sphere",
            "rotation" : [
                -0.855851411819458,
                0,
                0,
                0.5172217488288879
            ],
            "scale" : [
                -0.13188569247722626,
                -0.1332107037305832,
                -0.16751202940940857
            ],
            "translation" : [
                1.0371837615966797,
                2.4128341674804688,
                -0.6530764698982239
            ]
        },
        {
            "mesh" : 1,
            "name" : "Surface",
            "scale" : [
                1,
                1,
                0.5
            ],
            "translation" : [
                0,
                2.072693347930908,
                -0.4742094576358795
            ]
        },
        {
            "children" : [
                0,
                1
            ],
            "mesh" : 2,
            "name" : "Cube",
            "scale" : [
                1,
                1,
                2
            ],
            "translation" : [
                0,
                2.2205328941345215,
                0
            ]
        },
        {
            "name" : "Light",
            "rotation" : [
                -0.37887242436408997,
                0.6747848987579346,
                0.07235778123140335,
                0.6291942596435547
            ],
            "translation" : [
                -7.962026596069336,
                13.345720291137695,
                -8.528388023376465
            ]
        },
        {
            "name" : "Camera",
            "rotation" : [
                -0.25199413299560547,
                0.7249974608421326,
                -0.5706948041915894,
                -0.2918647527694702
            ],
            "translation" : [
                -13.796213150024414,
                8.043027877807617,
                -16.349395751953125
            ]
        },
        {
            "name" : "Camera.001",
            "rotation" : [
                0.01533336192369461,
                -0.7415435910224915,
                0.6701314449310303,
                -0.02831682562828064
            ],
            "translation" : [
                0,
                3.813441514968872,
                -7.551907539367676
            ]
        },
        {
            "name" : "Point",
            "rotation" : [
                0.14240023493766785,
                0,
                -0.8050365447998047,
                0.5758805274963379
            ],
            "translation" : [
                6.776081085205078,
                1.7424943447113037,
                0
            ]
        }
    ],
    "animations" : [
        {
            "channels" : [
                {
                    "sampler" : 0,
                    "target" : {
                        "node" : 2,
                        "path" : "translation"
                    }
                },
                {
                    "sampler" : 1,
                    "target" : {
                        "node" : 2,
                        "path" : "rotation"
                    }
                }
            ],
            "name" : "CubeAction.002",
            "samplers" : [
                {
                    "input" : 16,
                    "interpolation" : "LINEAR",
                    "output" : 17
                },
                {
                    "input" : 18,
                    "interpolation" : "LINEAR",
                    "output" : 19
                }
            ]
        },
        {
            "channels" : [
                {
                    "sampler" : 0,
                    "target" : {
                        "node" : 0,
                        "path" : "translation"
                    }
                }
            ],
            "name" : "SphereAction",
            "samplers" : [
                {
                    "input" : 20,
                    "interpolation" : "STEP",
                    "output" : 21
                }
            ]
        },
        {
            "channels" : [
                {
                    "sampler" : 0,
                    "target" : {
                        "node" : 1,
                        "path" : "translation"
                    }
                }
            ],
            "name" : "SurfaceAction",
            "samplers" : [
                {
                    "input" : 20,
                    "interpolation" : "STEP",
                    "output" : 22
                }
            ]
        }
    ],
    "materials" : [
        {
            "doubleSided" : true,
            "emissiveFactor" : [
                0,
                0,
                0
            ],
            "name" : "Material.002",
            "pbrMetallicRoughness" : {
                "baseColorFactor" : [
                    0,
                    0,
                    0,
                    1
                ],
                "metallicFactor" : 0,
                "roughnessFactor" : 0.5
            }
        },
        {
            "doubleSided" : true,
            "emissiveFactor" : [
                0,
                0,
                0
            ],
            "name" : "Material.003",
            "pbrMetallicRoughness" : {
                "baseColorFactor" : [
                    0.8000000715255737,
                    0.258897602558136,
                    0.004392765462398529,
                    1
                ],
                "metallicFactor" : 0,
                "roughnessFactor" : 0.5
            }
        },
        {
            "doubleSided" : true,
            "emissiveFactor" : [
                0,
                0,
                0
            ],
            "name" : "Material.001",
            "pbrMetallicRoughness" : {
                "baseColorFactor" : [
                    1,
                    1,
                    1,
                    1
                ],
                "metallicFactor" : 0,
                "roughnessFactor" : 1
            }
        }
    ],
    "meshes" : [
        {
            "name" : "Sphere",
            "primitives" : [
                {
                    "attributes" : {
                        "POSITION" : 0,
                        "NORMAL" : 1,
                        "TEXCOORD_0" : 2
                    },
                    "indices" : 3,
                    "material" : 0
                },
                {
                    "attributes" : {
                        "POSITION" : 4,
                        "NORMAL" : 5,
                        "TEXCOORD_0" : 6
                    },
                    "indices" : 7,
                    "material" : 0
                }
            ]
        },
        {
            "name" : "Surface",
            "primitives" : [
                {
                    "attributes" : {
                        "POSITION" : 8,
                        "NORMAL" : 9,
                        "TEXCOORD_0" : 10
                    },
                    "indices" : 11,
                    "material" : 1
                }
            ]
        },
        {
            "name" : "Cube",
            "primitives" : [
                {
                    "attributes" : {
                        "POSITION" : 12,
                        "NORMAL" : 13,
                        "TEXCOORD_0" : 14
                    },
                    "indices" : 15,
                    "material" : 2
                }
            ]
        }
    ],
    "accessors" : [
        {
            "bufferView" : 0,
            "componentType" : 5126,
            "count" : 79,
            "max" : [
                0.9999997615814209,
                1,
                0.9999995231628418
            ],
            "min" : [
                -0.9999996423721313,
                -1,
                -1
            ],
            "type" : "VEC3"
        },
        {
            "bufferView" : 1,
            "componentType" : 5126,
            "count" : 79,
            "type" : "VEC3"
        },
        {
            "bufferView" : 2,
            "componentType" : 5126,
            "count" : 79,
            "type" : "VEC2"
        },
        {
            "bufferView" : 3,
            "componentType" : 5123,
            "count" : 336,
            "type" : "SCALAR"
        },
        {
            "bufferView" : 4,
            "componentType" : 5126,
            "count" : 79,
            "max" : [
                16.774600982666016,
                1.0000003576278687,
                0.9999991655349731
            ],
            "min" : [
                14.774600982666016,
                -0.9999994039535522,
                -1.0000001192092896
            ],
            "type" : "VEC3"
        },
        {
            "bufferView" : 5,
            "componentType" : 5126,
            "count" : 79,
            "type" : "VEC3"
        },
        {
            "bufferView" : 6,
            "componentType" : 5126,
            "count" : 79,
            "type" : "VEC2"
        },
        {
            "bufferView" : 7,
            "componentType" : 5123,
            "count" : 336,
            "type" : "SCALAR"
        },
        {
            "bufferView" : 8,
            "componentType" : 5126,
            "count" : 15480,
            "max" : [
                1.3809128999710083,
                -0.37514743208885193,
                1.7837568521499634
            ],
            "min" : [
                -1.35308837890625,
                -3.258324384689331,
                -2.0574100017547607
            ],
            "type" : "VEC3"
        },
        {
            "bufferView" : 9,
            "componentType" : 5126,
            "count" : 15480,
            "type" : "VEC3"
        },
        {
            "bufferView" : 10,
            "componentType" : 5126,
            "count" : 15480,
            "type" : "VEC2"
        },
        {
            "bufferView" : 11,
            "componentType" : 5123,
            "count" : 23220,
            "type" : "SCALAR"
        },
        {
            "bufferView" : 12,
            "componentType" : 5126,
            "count" : 593,
            "max" : [
                1.539947748184204,
                3.612098455429077,
                1.5580800771713257
            ],
            "min" : [
                -1.5399476289749146,
                -2.647986888885498,
                -1.5033162832260132
            ],
            "type" : "VEC3"
        },
        {
            "bufferView" : 13,
            "componentType" : 5126,
            "count" : 593,
            "type" : "VEC3"
        },
        {
            "bufferView" : 14,
            "componentType" : 5126,
            "count" : 593,
            "type" : "VEC2"
        },
        {
            "bufferView" : 15,
            "componentType" : 5123,
            "count" : 2358,
            "type" : "SCALAR"
        },
        {
            "bufferView" : 16,
            "componentType" : 5126,
            "count" : 100,
            "max" : [
                4.166666666666667
            ],
            "min" : [
                0.041666666666666664
            ],
            "type" : "SCALAR"
        },
        {
            "bufferView" : 17,
            "componentType" : 5126,
            "count" : 100,
            "type" : "VEC3"
        },
        {
            "bufferView" : 18,
            "componentType" : 5126,
            "count" : 200,
            "max" : [
                8.333333333333334
            ],
            "min" : [
                0.041666666666666664
            ],
            "type" : "SCALAR"
        },
        {
            "bufferView" : 19,
            "componentType" : 5126,
            "count" : 200,
            "type" : "VEC4"
        },
        {
            "bufferView" : 20,
            "componentType" : 5126,
            "count" : 1,
            "max" : [
                0.041666666666666664
            ],
            "min" : [
                0.041666666666666664
            ],
            "type" : "SCALAR"
        },
        {
            "bufferView" : 21,
            "componentType" : 5126,
            "count" : 1,
            "type" : "VEC3"
        },
        {
            "bufferView" : 22,
            "componentType" : 5126,
            "count" : 1,
            "type" : "VEC3"
        }
    ],
    "bufferViews" : [
        {
            "buffer" : 0,
            "byteLength" : 948,
            "byteOffset" : 0
        },
        {
            "buffer" : 0,
            "byteLength" : 948,
            "byteOffset" : 948
        },
        {
            "buffer" : 0,
            "byteLength" : 632,
            "byteOffset" : 1896
        },
        {
            "buffer" : 0,
            "byteLength" : 672,
            "byteOffset" : 2528
        },
        {
            "buffer" : 0,
            "byteLength" : 948,
            "byteOffset" : 3200
        },
        {
            "buffer" : 0,
            "byteLength" : 948,
            "byteOffset" : 4148
        },
        {
            "buffer" : 0,
            "byteLength" : 632,
            "byteOffset" : 5096
        },
        {
            "buffer" : 0,
            "byteLength" : 672,
            "byteOffset" : 5728
        },
        {
            "buffer" : 0,
            "byteLength" : 185760,
            "byteOffset" : 6400
        },
        {
            "buffer" : 0,
            "byteLength" : 185760,
            "byteOffset" : 192160
        },
        {
            "buffer" : 0,
            "byteLength" : 123840,
            "byteOffset" : 377920
        },
        {
            "buffer" : 0,
            "byteLength" : 46440,
            "byteOffset" : 501760
        },
        {
            "buffer" : 0,
            "byteLength" : 7116,
            "byteOffset" : 548200
        },
        {
            "buffer" : 0,
            "byteLength" : 7116,
            "byteOffset" : 555316
        },
        {
            "buffer" : 0,
            "byteLength" : 4744,
            "byteOffset" : 562432
        },
        {
            "buffer" : 0,
            "byteLength" : 4716,
            "byteOffset" : 567176
        },
        {
            "buffer" : 0,
            "byteLength" : 400,
            "byteOffset" : 571892
        },
        {
            "buffer" : 0,
            "byteLength" : 1200,
            "byteOffset" : 572292
        },
        {
            "buffer" : 0,
            "byteLength" : 800,
            "byteOffset" : 573492
        },
        {
            "buffer" : 0,
            "byteLength" : 3200,
            "byteOffset" : 574292
        },
        {
            "buffer" : 0,
            "byteLength" : 4,
            "byteOffset" : 577492
        },
        {
            "buffer" : 0,
            "byteLength" : 12,
            "byteOffset" : 577496
        },
        {
            "buffer" : 0,
            "byteLength" : 12,
            "byteOffset" : 577508
        }
    ],
    "buffers" : [
        {
            "byteLength" : 577520,
            "uri" : "mommello.bin"
        }
    ]
}
